<svg width="147" height="78" viewBox="0 0 147 78" fill="none" xmlns="http://www.w3.org/2000/svg">
<g filter="url(#filter0_d_37001_232)">
<path d="M143 0H4L63.9312 65.6531C69.1688 71.449 77.8312 71.449 83.0688 65.6531L143 0Z" fill="#81B3D3"/>
<path d="M40.804 0.49745L72.9951 38.2042L105.086 0.696431L40.804 0.49745Z" fill="#23A9E1"/>
<path d="M65.2734 14.625H82.6225C81.3188 13.829 78.21 10.0484 76.6055 11.4413C76.5052 11.5408 71.6916 5.77035 68.5828 8.55607C65.8751 11.0433 64.5714 8.2576 61.5629 10.1479C57.9527 12.5357 63.5686 13.829 65.2734 14.625ZM92.0492 11.1428L82.2214 11.2423C86.1324 6.76525 87.8373 7.2627 92.0492 11.1428Z" fill="white"/>
<path d="M101.877 3.58164V1.19388H103.983L101.877 3.58164ZM52.5371 12.9337C52.6374 13.0332 54.9439 10.5459 58.6544 8.0587C62.0641 5.77043 67.2788 3.18368 73.0953 3.18368C78.9118 3.18368 84.2268 5.86992 87.6365 8.15819C91.347 10.5459 93.6535 12.9337 93.7538 13.0332L91.2467 16.0179C86.7339 16.6148 83.5248 19.898 79.1123 19.2016C76.9061 18.8036 76.8058 17.6097 76.2041 16.3164C75.7027 15.3215 74.9004 15.5205 73.8976 15.1225C72.995 14.7245 72.3933 14.0281 70.4879 14.4261C68.8834 14.824 68.6828 17.3113 66.5769 17.2118C65.4737 17.1123 65.3734 15.6199 63.7689 13.6301C59.6573 8.75513 55.8465 9.45156 53.2391 13.9286L72.8947 37.1098L52.5371 12.9337ZM44.1133 1.19388V3.08419L42.5087 1.19388H44.1133ZM98.1663 1.19388H101.375V4.17858L98.1663 7.95921V1.19388ZM94.0546 12.5358V1.19388H97.5646V8.55615L94.0546 12.5358C94.0546 12.5358 94.1549 12.5358 94.0546 12.5358ZM93.5532 2.18878V12.0383C92.4501 10.9439 91.2467 9.94901 89.943 9.0536L93.5532 2.18878ZM89.4416 1.89031V8.65564C88.9401 8.35717 88.539 7.95921 87.9373 7.66074C87.2353 7.26278 86.5333 6.76533 85.7311 6.36737L89.4416 1.89031ZM85.0291 1.69133V5.96941C84.0262 5.47195 82.9231 4.9745 81.9203 4.47705L85.0291 1.69133ZM85.6308 1.19388H89.3413L85.6308 5.77043V1.19388ZM89.943 1.19388H93.5532L89.943 8.25768V1.19388ZM81.118 1.19388H85.0291L81.5191 4.27807C81.4189 4.27807 81.3186 4.17858 81.2183 4.17858L81.118 1.19388ZM80.6166 1.59184V3.9796C79.6138 3.58164 78.6109 3.28317 77.5078 3.08419L80.6166 1.59184ZM76.4047 1.59184V2.88521C75.7027 2.78572 75.0007 2.68623 74.1984 2.58674L76.4047 1.59184ZM69.5854 1.59184L71.7916 2.58674C70.9893 2.58674 70.2874 2.68623 69.5854 2.88521V1.59184ZM65.4737 1.59184L68.5825 3.08419C67.4794 3.28317 66.4766 3.58164 65.4737 3.9796V1.59184ZM69.084 2.78572L65.7746 1.19388H69.084V2.78572ZM72.5939 2.38776L69.7859 1.09439H72.5939V2.38776ZM73.2959 1.19388H76.2041L73.2959 2.48725V1.19388ZM77.0064 1.19388H80.2155L77.0064 2.78572V1.19388ZM64.5712 4.27807L61.0612 1.19388H64.9723V4.17858L64.5712 4.27807ZM60.961 1.69133L64.0698 4.37756C62.9666 4.77552 61.9638 5.27297 60.961 5.86992V1.69133ZM56.6488 1.89031L60.259 6.36737C58.9553 7.0638 57.7519 7.85972 56.6488 8.75513V1.89031ZM52.4368 2.18878L56.0471 9.15309C54.7434 10.148 53.54 11.1429 52.4368 12.3368V2.18878ZM56.1473 8.15819L52.5371 1.09439H56.1473V8.15819ZM60.4595 5.67093L56.749 1.09439H60.4595V5.67093ZM47.8238 7.46176L44.6147 3.68113V1.19388H47.8238V7.46176ZM48.4255 1.19388H51.9354V12.3368L48.4255 8.15819V1.19388ZM73.2959 0H40.1019V14.5256L72.995 54.2221L73.1956 53.9236L106.289 14.9235V0H73.2959Z" fill="#491213"/>
<path d="M70.3877 45.7655L72.9951 41.5869L75.6025 45.7655L72.9951 49.9441L70.3877 45.7655Z" fill="#23A9E1"/>
<path d="M78.4106 30.4439C75.001 28.4541 75.8033 26.9618 78.6112 25.5689C80.1155 24.8725 83.4248 22.1862 84.7285 23.0817L78.4106 30.4439ZM76.1041 32.9312C74.0984 32.8317 71.7919 32.5332 69.7862 33.0307C70.9896 33.3291 73.9981 34.2245 71.1902 34.921C72.193 36.3138 73.7976 36.2144 74.8004 35.0205C74.3993 34.8215 74.0984 34.523 73.7976 34.324C74.9007 34.0256 75.9035 33.4286 76.1041 32.9312ZM77.3075 31.3393C76.405 30.5434 75.4021 30.5434 74.5998 31.3393C73.3964 29.25 69.1845 29.9465 67.1788 29.648C68.282 32.2347 76.8061 32.7322 77.3075 31.3393ZM70.4882 29.1506C68.8837 28.6531 63.6689 28.7526 67.0786 27.3597C68.1817 26.9618 73.7976 27.4592 70.4882 29.1506ZM72.4939 26.1659C71.9925 25.0715 72.895 23.7781 74.1987 24.773C75.4021 25.5689 73.597 26.7628 72.4939 26.1659ZM69.5857 26.2653C67.2791 26.9618 64.2706 25.4694 67.9811 24.773C70.2876 24.2755 72.6945 25.2704 69.5857 26.2653C69.4854 26.2653 69.6859 26.2653 69.5857 26.2653ZM66.9783 20.097C66.4769 21.6888 65.474 21.9873 65.5743 20.097C65.6746 17.8087 67.1788 18.4056 68.7834 17.5102C70.0871 16.8138 70.7891 14.1276 73.0956 15.7194C74.0984 16.4158 75.3018 15.8189 75.6027 16.9133C75.6027 16.8138 72.6945 23.5791 74.299 23.5791C71.0899 23.5791 72.4939 19.7985 73.6973 17.2117C72.4939 17.8087 70.5885 21.4898 72.193 22.1862C71.3908 23.2806 68.7834 24.773 67.4797 23.6786C66.3766 22.6837 66.9783 21.3903 66.9783 20.097ZM62.9669 22.8827C57.351 22.8827 61.1618 14.3265 63.0672 14.824C65.2735 15.5204 64.9726 22.9822 62.9669 22.8827ZM56.7493 14.7245C54.1419 14.625 55.2451 12.1377 57.0502 11.6403C58.755 11.1428 62.2649 12.7347 63.4683 13.8291C61.6632 14.426 59.3567 14.3265 57.351 14.426C57.1505 12.4362 56.649 13.1326 56.7493 14.7245Z" fill="#DC6243"/>
<path d="M76.0039 25.6685C73.0957 22.6838 80.3161 22.9823 81.5195 21.8879C82.3218 22.1864 88.5394 16.5155 90.0437 16.9134C88.9406 18.2068 86.634 22.1864 85.0295 22.1864C83.7258 22.1864 82.4221 21.9874 81.4193 22.8828C79.915 24.2757 77.5082 24.9721 76.0039 25.6685Z" fill="#F49774"/>
<path d="M76.906 22.0868C75.3015 22.9822 73.7972 19.5996 76.6052 19.898C78.4103 20.097 80.3157 19.6991 82.0205 19.9975C80.7168 21.4899 78.9117 22.2858 76.906 22.0868Z" fill="#F4B1A4"/>
<path d="M55.2452 20.7935C55.546 21.1915 55.8469 21.5894 55.7466 22.1864C55.7466 22.5843 55.1449 23.1813 55.546 23.3803L57.0503 21.5894C56.6492 21.4899 53.5404 17.8088 53.5404 17.4108L51.4344 18.5052C51.5347 18.9032 52.2367 18.5052 52.6378 18.5052C53.1392 18.5052 53.5404 18.9032 53.9415 19.2017C52.8384 20.0971 50.1307 22.4848 49.8299 22.4848C49.7296 22.4848 49.1279 22.0869 49.1279 22.4848C49.1279 22.6838 49.7296 23.1813 49.8299 23.2808L51.2338 24.9721C51.635 24.7731 51.1336 24.4746 51.3341 24.1762C51.4344 23.9772 54.5432 21.4899 55.2452 20.7935ZM51.8355 16.3165C52.1364 16.217 52.2367 16.6149 52.4372 16.3165L50.8327 14.4261C50.6321 14.1277 50.3313 13.8292 50.3313 14.4261C50.4316 14.8241 46.3199 18.1073 46.1194 18.2068C45.8185 18.3063 45.6179 17.9083 45.4174 18.3063C45.9188 18.9032 46.3199 19.4007 46.8214 19.9976C47.0219 20.1966 47.1222 20.3956 47.3228 20.5945C47.5233 20.7935 47.4231 20.1966 47.4231 20.1966C47.3228 19.8981 47.7239 19.5996 48.0248 19.4007C49.0276 18.4057 51.5347 16.3165 51.8355 16.3165ZM46.1194 15.7195C45.0162 16.018 43.7126 15.62 43.4117 14.4261C43.0106 13.2323 43.8128 12.0384 44.7154 11.342C45.6179 10.6455 47.0219 10.745 47.5233 11.8394C47.7239 12.3369 47.6236 12.9338 47.4231 13.4312C47.3228 13.7297 47.0219 14.0282 47.4231 14.2272C48.0248 13.5307 48.5262 12.8343 49.1279 12.1379C48.4259 11.7399 48.125 11.0435 47.6236 10.4465C47.0219 9.75011 46.3199 9.05368 45.3171 8.95419C43.4117 8.65572 41.7069 10.6455 41.5063 12.3369C41.406 13.2323 41.7069 14.1277 42.3086 14.9236C42.81 15.5205 43.512 16.018 43.9131 16.7144C44.1137 16.8139 45.7182 16.018 46.0191 15.9185C46.2196 15.9185 46.1194 15.819 46.1194 15.7195C46.1194 15.7195 45.6179 15.9185 46.1194 15.7195ZM71.6917 39.1992C70.9898 38.7017 69.0844 36.2145 68.6832 35.717L68.4827 35.4186L68.2821 35.518C68.1818 35.6175 68.3824 35.916 68.2821 36.115C67.7807 36.9109 64.5716 39.2987 64.371 39.4976C63.9699 39.6966 63.5687 39.3982 63.3682 39.6966C63.8696 40.2936 65.1733 41.9849 65.3739 41.9849C65.6747 41.9849 65.4741 41.4874 65.4741 41.388C65.5744 41.189 67.179 39.7961 67.7807 39.2987C67.9812 39.0997 68.1818 39.5971 68.3824 39.7961C68.5829 40.0946 68.6832 40.4926 68.5829 40.791C68.4827 40.99 68.0815 41.388 68.3824 41.5869C68.7835 41.0895 69.8866 39.7961 70.0872 39.5971C70.2878 39.3982 69.6861 39.5971 69.7863 39.4976C69.5858 39.5971 69.2849 39.6966 69.0844 39.4976C68.9841 39.4976 68.3824 38.8012 68.4827 38.7017C68.7835 38.5027 69.0844 38.1048 69.4855 38.0053C70.0872 37.9058 70.4883 39.0002 70.5886 39.3982C70.6889 39.7961 70.6889 40.1941 70.4883 40.4925C70.3881 40.791 70.1875 40.99 70.4883 41.0895L71.8923 39.1992C71.8923 39.2987 71.792 39.2987 71.6917 39.1992C71.792 39.2987 71.5915 39.1992 71.6917 39.1992ZM62.4656 30.3446C61.7636 30.3446 61.0617 30.643 60.4599 31.1405C59.056 32.3344 58.8554 34.4237 59.9585 35.916C61.2622 37.6073 63.3682 37.8063 65.073 36.6124C66.477 35.4186 66.6775 33.3293 65.5744 31.8369C64.7722 30.842 63.5687 30.3446 62.4656 30.3446ZM63.669 31.7374C64.5716 31.6379 65.1733 32.5333 64.7722 33.5282C64.371 34.5231 63.3682 35.518 62.3653 35.916C61.1619 36.4135 60.3597 35.4186 60.8611 34.2247C61.2622 33.2298 62.2651 32.2349 63.2679 31.8369C63.3682 31.8369 63.4685 31.7374 63.669 31.7374ZM60.8611 27.1609C61.1619 27.1609 61.4628 27.5588 61.6634 27.1609L60.2594 25.4695C59.8582 25.6685 60.2594 25.8675 60.1591 26.0665C59.9585 26.365 58.4543 26.5639 58.0531 26.6634C58.1534 26.2655 58.6548 24.9721 58.8554 24.8726C59.2565 24.5741 59.4571 25.1711 59.6577 24.7731L57.8526 22.6838C57.652 22.4848 57.4514 21.9874 57.2509 22.2859C57.2509 22.2859 57.2509 23.2808 57.1506 23.3803C57.0503 23.5792 56.5489 25.768 55.9472 26.2655C55.6463 26.5639 54.4429 27.5588 54.1421 27.6583C53.8412 27.7578 53.6407 27.2604 53.3398 27.6583L54.9443 29.5486C55.0446 29.6481 55.3455 30.1456 55.4458 30.1456C55.7466 30.2451 55.4458 29.5486 55.546 29.4491C55.6463 29.1507 57.1506 27.6583 57.8526 27.5588C58.7551 27.3599 59.8582 27.0614 60.8611 27.1609C60.6605 27.1609 61.0617 27.1609 60.8611 27.1609ZM85.1298 33.8267C85.2301 34.2247 85.3303 34.7221 85.2301 35.1201C85.1298 35.717 84.6284 37.0104 83.8261 36.6124C83.0238 36.2145 82.4221 35.518 81.7201 34.9211C82.2215 34.3242 82.723 33.8267 83.6255 34.1252C83.8261 34.2247 84.0266 34.1252 83.8261 33.9262C83.5252 33.7272 81.8204 32.6328 81.7201 32.7323C81.5196 32.9313 82.021 33.3293 81.8204 33.7272C81.7201 34.0257 81.4193 34.2247 81.2187 34.5231C80.7173 34.1252 80.0153 33.7272 80.5167 33.0308C80.9179 32.6328 81.319 32.2349 81.9207 32.1354C82.3218 32.0359 83.1241 32.4339 83.2244 32.0359C82.5224 31.7374 81.8204 31.3395 81.1184 31.041C81.2187 31.5384 78.9122 33.9262 78.4108 34.5231C78.3105 34.6226 78.0096 34.9211 78.0096 35.0206C78.0096 35.3191 78.4108 35.1201 78.4108 35.1201C78.7116 35.0206 82.8232 38.4033 82.9235 38.7017C83.0238 38.9007 82.8232 39.0997 82.9235 39.1992C82.9235 39.1992 83.0238 39.2987 83.1241 39.2987C83.4249 39.0002 86.0323 35.4186 86.634 35.3191C86.1326 34.5231 85.6312 33.7272 85.1298 32.9313C84.7286 33.1303 85.0295 33.6277 85.1298 33.8267ZM81.1184 38.2043C79.8147 37.3089 77.5082 39.0002 77.1071 39.1992C76.4051 39.4976 75.9037 38.8012 76.3048 38.2043C76.6056 37.7068 77.2073 37.4084 77.8091 37.4084C78.0096 37.4084 78.7116 37.5078 78.7116 37.4084C78.8119 37.3089 78.8119 37.3089 78.7116 37.2094C78.1099 36.8114 77.6085 36.4135 77.0068 36.115C76.9065 36.8114 76.1042 37.2094 75.7031 37.7068C75.2017 38.3038 74.7003 39.0002 74.7003 39.6966C74.7003 40.3931 75.1014 41.0895 75.8034 41.388C76.5054 41.7859 77.3076 41.4875 78.0096 41.0895C78.4108 40.791 78.8119 40.4925 79.213 40.2936C79.8147 39.9951 80.7173 40.2936 80.5167 41.0895C80.3162 41.7859 79.6142 42.3829 78.9122 42.5818C78.511 42.6813 78.1099 42.6813 77.7088 42.4824C77.4079 42.3829 77.1071 41.9849 76.9065 42.3829L79.213 43.9747C79.3133 43.4773 79.5139 43.2783 79.915 42.9798C80.4164 42.5818 80.8176 42.0844 81.2187 41.5869C82.021 40.6915 82.3218 39.0997 81.1184 38.2043ZM98.7684 10.2476C98.7684 10.3471 98.7684 10.3471 98.7684 10.2476L97.8658 11.2425L97.0636 12.2374C96.863 12.4363 96.7627 12.5358 97.0636 12.7348C97.565 12.4363 100.573 17.5103 100.373 18.2068C99.8715 18.4057 95.8601 14.9236 95.7599 14.7246C95.7599 14.6251 95.9604 14.0282 95.6596 14.1277C95.5593 14.1277 95.1582 14.7246 95.0579 14.8241L94.4562 15.5205C94.6567 15.819 94.757 15.5205 95.0579 15.5205C95.2584 15.62 96.2613 16.4159 96.5621 16.6149C96.0607 16.6149 94.8573 16.7144 94.6567 16.7144C94.055 16.8139 94.3559 16.3165 93.9547 16.1175L92.4505 17.9083L91.5479 18.9032C91.5479 18.9032 91.5479 18.9032 91.5479 19.0027C91.7485 19.2017 91.6482 19.1022 91.9491 19.0027C92.2499 18.9032 96.2613 22.1864 96.3616 22.3854C96.5621 22.6838 96.2613 22.9823 96.6624 23.1813L97.8658 21.7884C97.9661 21.6889 97.9661 21.6889 97.8658 21.6889C97.565 21.4899 97.565 21.7884 97.1638 21.7884C96.863 21.6889 94.2556 19.5996 93.353 18.8037L98.6681 18.6047C98.8687 18.6047 99.3701 19.2017 99.3701 19.4007C99.2698 19.5996 99.0692 19.7986 99.3701 19.8981C99.6709 19.5001 99.9718 19.2017 100.273 18.8037L100.373 18.6047C100.473 18.6047 100.473 18.5052 100.473 18.4057L100.573 18.3063C100.874 18.0078 101.777 17.0129 101.677 16.9134C101.376 16.6149 101.275 17.2119 100.874 16.9134C100.674 16.7144 100.072 15.7195 99.9718 15.5205C99.7712 15.2221 100.373 14.9236 100.573 14.8241C101.075 14.5256 102.679 14.0282 102.88 15.0231C102.88 15.2221 102.679 15.421 102.78 15.5205C102.78 15.5205 102.88 15.7195 102.98 15.62L105.086 13.0333C104.986 12.9338 104.986 12.9338 104.886 12.8343C104.384 13.3318 99.3701 11.342 99.0692 11.0435C98.9689 10.8445 98.9689 10.2476 98.7684 10.2476ZM98.5678 12.8343C99.3701 13.1328 100.072 13.4312 100.874 13.8292C100.674 13.9287 100.473 14.0282 100.273 14.1277C100.072 14.2272 99.8715 14.4261 99.6709 14.6251L98.5678 12.8343ZM91.9491 20.495C90.8459 20.3956 89.7428 20.893 88.9406 21.7884C87.7371 23.2808 87.8374 25.4695 89.3417 26.6634C90.8459 27.8573 93.0522 27.5588 94.2556 26.166C95.459 24.6736 95.3587 22.4848 93.8545 21.291C93.353 20.893 92.6511 20.5945 91.9491 20.495ZM90.5451 22.0869C91.1468 22.0869 91.8488 22.4848 92.2499 22.7833C93.0522 23.2808 94.4562 24.4746 93.7542 25.4695C93.7542 25.3701 93.8545 25.3701 93.6539 25.569C92.8516 26.365 91.4477 25.6685 90.7457 25.0716C90.0437 24.5741 88.74 23.3803 89.5423 22.3854C89.8431 22.1864 90.144 22.0869 90.5451 22.0869ZM87.4363 26.365C86.2329 26.2655 85.0295 26.8624 84.1269 27.9568C83.5252 28.7527 82.8232 29.4491 82.2215 30.2451C82.4221 30.5435 82.723 30.1456 83.0238 30.3446C83.3247 30.5435 87.1355 33.6277 87.1355 33.8267C87.2357 34.1252 86.9349 34.2247 87.2357 34.4237C87.336 34.5231 90.144 31.041 90.4448 30.444C90.8459 29.3497 90.5451 28.0563 89.6425 27.2604C89.7428 27.3599 89.8431 27.3599 89.6425 27.2604C88.8403 26.6634 88.1383 26.365 87.4363 26.365ZM86.3332 27.9568C86.4335 27.9568 86.5337 27.9568 86.634 27.9568C88.038 28.3548 90.0437 30.0461 88.74 31.5384C88.5394 31.7374 88.74 31.5384 88.3389 31.9364C88.1383 32.1354 84.1269 28.9517 84.3275 28.7527C84.7286 28.2553 85.6312 27.8573 86.3332 27.9568Z" fill="white"/>
</g>
<defs>
<filter id="filter0_d_37001_232" x="0" y="0" width="147" height="78" filterUnits="userSpaceOnUse" color-interpolation-filters="sRGB">
<feFlood flood-opacity="0" result="BackgroundImageFix"/>
<feColorMatrix in="SourceAlpha" type="matrix" values="0 0 0 0 0 0 0 0 0 0 0 0 0 0 0 0 0 0 127 0" result="hardAlpha"/>
<feOffset dy="4"/>
<feGaussianBlur stdDeviation="2"/>
<feComposite in2="hardAlpha" operator="out"/>
<feColorMatrix type="matrix" values="0 0 0 0 0 0 0 0 0 0 0 0 0 0 0 0 0 0 0.25 0"/>
<feBlend mode="normal" in2="BackgroundImageFix" result="effect1_dropShadow_37001_232"/>
<feBlend mode="normal" in="SourceGraphic" in2="effect1_dropShadow_37001_232" result="shape"/>
</filter>
</defs>
</svg>
