<svg aria-hidden="true" style="position:absolute;width:0;height:0" xmlns="http://www.w3.org/2000/svg" overflow="hidden"><defs><symbol id="icon-logo-htmlacademy" viewBox="0 0 108 32"><path d="M0 13.08v2.45h2.35v-2.45H0zM10.92 5.18a4.2 4.2 0 0 0-3.39 1.6h-.1V.94H5.56v14.59h1.89v-4.99c0-1.97 1.22-3.39 3.1-3.39 1.7 0 2.73 1.32 2.73 3.02v5.36h1.88V9.79c.1-2.82-1.7-4.61-4.23-4.61zM25.04 5.46h-4.52V1.98h-1.89v3.57h-1.78v1.88h1.78v5.65c0 1.6.95 2.54 2.55 2.54h3.85v-1.88h-3.48c-.66 0-1.03-.38-1.03-1.03V7.34h4.52V5.46zM38.68 5.27a3.5 3.5 0 0 0-3.3 1.98h-.09a3.5 3.5 0 0 0-3.2-1.98 3.4 3.4 0 0 0-2.91 1.7h-.1V5.46H27.3v9.98h1.89v-5.09c0-1.88.94-3.3 2.44-3.3 1.42 0 2.26.95 2.26 2.46v5.93h1.88v-5.28c0-2.25 1.32-3.1 2.45-3.1 1.41 0 2.26.94 2.26 2.45v5.92h1.88V9.32c.1-2.36-1.32-4.05-3.67-4.05zM44.99 12.9c0 1.6.94 2.53 2.63 2.53h1.89v-1.88h-1.6c-.66 0-1.04-.37-1.04-1.03V.94h-1.88V12.9zM27.2 19.48a4.57 4.57 0 0 0-3.67-1.7c-2.92 0-5.08 2.17-5.08 5.28s2.16 5.27 5.08 5.27a4.2 4.2 0 0 0 3.57-1.79h.1v1.5h1.88v-9.97H27.2v1.41zm-3.39 6.97c-2.07 0-3.39-1.5-3.39-3.4s1.32-3.38 3.4-3.38c2.06 0 3.38 1.5 3.38 3.39a3.31 3.31 0 0 1-3.39 3.39zM41.6 21.65c-.47-2.26-2.45-3.86-5.08-3.86-3.2 0-5.27 2.35-5.27 5.27s2.07 5.27 5.27 5.27c2.63 0 4.61-1.7 5.08-3.95h-1.98a3.2 3.2 0 0 1-3.1 2.16c-2.07 0-3.39-1.5-3.39-3.39s1.32-3.38 3.39-3.38c1.5 0 2.63.94 3.1 2.07h1.98v-.2zM51.86 19.48a4.57 4.57 0 0 0-3.67-1.7c-2.92 0-5.08 2.17-5.08 5.28s2.16 5.27 5.08 5.27a4.2 4.2 0 0 0 3.57-1.79h.1v1.5h1.88v-9.97h-1.88v1.41zm-3.39 6.97c-2.07 0-3.39-1.5-3.39-3.4s1.32-3.38 3.4-3.38c2.06 0 3.38 1.5 3.38 3.39a3.37 3.37 0 0 1-3.39 3.39zM64.66 19.58a4.64 4.64 0 0 0-3.67-1.8c-2.92 0-5.08 2.17-5.08 5.28s2.07 5.27 5.08 5.27c1.6 0 2.82-.75 3.57-1.7h.1v1.42h1.88v-14.5h-1.88v6.03zm-3.39 6.87c-2.07 0-3.39-1.5-3.39-3.4s1.32-3.38 3.4-3.38c2.06 0 3.38 1.5 3.38 3.39-.1 1.88-1.41 3.39-3.39 3.39zM73.7 17.79a5.07 5.07 0 0 0-5.18 5.27c0 2.82 1.97 5.27 5.17 5.27 2.36 0 4.24-1.22 4.9-3.39H76.6c-.47.94-1.5 1.5-2.82 1.5-1.79 0-3.1-1.22-3.2-2.72h8.28c.19-3.39-1.88-5.93-5.18-5.93zm0 1.79c1.6 0 2.82.94 3.1 2.44h-6.12a2.97 2.97 0 0 1 3.01-2.44zM92.42 17.79c-1.5 0-2.72.75-3.38 1.88h-.1a3.43 3.43 0 0 0-3.2-1.88c-1.32 0-2.35.66-2.92 1.7v-1.42h-1.78v9.98h1.88v-5.09c0-1.88.94-3.2 2.45-3.29 1.4 0 2.25.94 2.25 2.45v5.93h1.89v-5.28c0-2.25 1.31-3.1 2.44-3.1 1.42 0 2.26.94 2.26 2.45v5.92h1.88v-6.11c.1-2.45-1.31-4.14-3.67-4.14zM102.97 26.35l-3.4-8.37h-2.06l4.51 10.92c-.28.84-.65 1.12-1.6 1.12h-2.35v1.89h2.35c1.7 0 2.64-.76 3.3-2.45l4.42-11.48h-1.97l-3.2 8.37z"/></symbol><symbol id="arrow" viewBox="0 0 21 32"><path fill="var(--color1, #fff)" d="M17.96 14.47 4.44 2.38c-.7-.7-2.13-.7-3.2 0s-.7 2.13 0 2.85l11.74 10.66L1.6 26.56a2.16 2.16 0 0 0 0 2.84c0 .36 1.07.72 1.42.72s1.07-.36 1.42-.72l13.52-12.08a1.66 1.66 0 0 0 0-2.85z"/></symbol><symbol id="icon-cards" viewBox="0 0 32 32"><path fill="var(--color2, #000)" d="M13.33 11.33h-2.66v4h2.66v-4zM21.33 11.33h-2.66v4h2.66v-4zM17.33 11.33h-2.66v4h2.66v-4zM13.33 16.67h-2.66v4h2.66v-4zM21.33 16.67h-2.66v4h2.66v-4zM17.33 16.67h-2.66v4h2.66v-4z"/><path fill="var(--color3, #e5e5e5)" d="M2.67 1.33h26.66v-2.66H2.67v2.66zm28 1.34v26.66h2.66V2.67h-2.66zm-1.34 28H2.67v2.66h26.66v-2.66zm-28-1.34V2.67h-2.66v26.66h2.66zm1.34 1.34c-.74 0-1.34-.6-1.34-1.34h-2.66a4 4 0 0 0 4 4v-2.66zm28-1.34c0 .74-.6 1.34-1.34 1.34v2.66a4 4 0 0 0 4-4h-2.66zm-1.34-28c.74 0 1.34.6 1.34 1.34h2.66a4 4 0 0 0-4-4v2.66zM2.67-1.33a4 4 0 0 0-4 4h2.66c0-.74.6-1.34 1.34-1.34v-2.66z"/></symbol><symbol id="icon-list" viewBox="0 0 32 32"><path fill="var(--color2, #000)" d="M12 11.33h-1.33v1.34H12v-1.34zM21.33 11.33h-8v1.34h8v-1.34zM12 14h-1.33v1.33H12V14zM21.33 14h-8v1.33h8V14zM12 16.67h-1.33V18H12v-1.33zM21.33 16.67h-8V18h8v-1.33zM12 19.33h-1.33v1.34H12v-1.34zM21.33 19.33h-8v1.34h8v-1.34z"/><path fill="var(--color3, #e5e5e5)" d="M2.67 1.33h26.66v-2.66H2.67v2.66zm28 1.34v26.66h2.66V2.67h-2.66zm-1.34 28H2.67v2.66h26.66v-2.66zm-28-1.34V2.67h-2.66v26.66h2.66zm1.34 1.34c-.74 0-1.34-.6-1.34-1.34h-2.66a4 4 0 0 0 4 4v-2.66zm28-1.34c0 .74-.6 1.34-1.34 1.34v2.66a4 4 0 0 0 4-4h-2.66zm-1.34-28c.74 0 1.34.6 1.34 1.34h2.66a4 4 0 0 0-4-4v2.66zM2.67-1.33a4 4 0 0 0-4 4h2.66c0-.74.6-1.34 1.34-1.34v-2.66z"/></symbol><symbol id="icon-slide-show" viewBox="0 0 32 32"><path fill="var(--color2, #000)" d="M21.33 19.33H10.67v1.34h10.66v-1.34zM20 12.67v4h-8v-4h8zm1.33-1.34H10.67V18h10.66v-6.67z"/><path fill="var(--color3, #e5e5e5)" d="M2.67 1.33h26.66v-2.66H2.67v2.66zm28 1.34v26.66h2.66V2.67h-2.66zm-1.34 28H2.67v2.66h26.66v-2.66zm-28-1.34V2.67h-2.66v26.66h2.66zm1.34 1.34c-.74 0-1.34-.6-1.34-1.34h-2.66a4 4 0 0 0 4 4v-2.66zm28-1.34c0 .74-.6 1.34-1.34 1.34v2.66a4 4 0 0 0 4-4h-2.66zm-1.34-28c.74 0 1.34.6 1.34 1.34h2.66a4 4 0 0 0-4-4v2.66zM2.67-1.33a4 4 0 0 0-4 4h2.66c0-.74.6-1.34 1.34-1.34v-2.66z"/></symbol><symbol id="icon-telegram" viewBox="0 0 34 32"><path fill="var(--color4, #83b3d3)" d="M31.6 1.13 1.58 12.7c-2.05.83-2.03 1.97-.37 2.48l7.7 2.4L26.74 6.33c.84-.51 1.61-.24.98.33L13.28 19.7l-.54 7.94c.78 0 1.13-.36 1.56-.78l3.75-3.64 7.78 5.75c1.44.79 2.47.38 2.83-1.33l5.1-24.09c.53-2.1-.8-3.04-2.16-2.42z"/></symbol><symbol id="icon-vk" viewBox="0 0 51 32"><path fill="var(--color4, #83b3d3)" d="M50.03 3.09c.35-1.17 0-2.02-1.7-2.02h-5.6c-1.42 0-2.08.74-2.44 1.55 0 0-2.84 6.82-6.88 11.25-1.3 1.29-1.9 1.7-2.61 1.7-.36 0-.9-.41-.9-1.58V3.09c0-1.4-.38-2.02-1.57-2.02h-8.8c-.9 0-1.43.65-1.43 1.26 0 1.33 2.02 1.64 2.22 5.36v8.1c0 1.78-.32 2.1-1.04 2.1-1.9 0-6.51-6.84-9.25-14.68-.54-1.53-1.07-2.14-2.5-2.14h-5.6C.32 1.07 0 1.8 0 2.62c0 1.46 1.9 8.69 8.84 18.25C13.47 27.39 20 30.93 25.93 30.93c3.56 0 4-.78 4-2.14v-4.93c0-1.57.34-1.89 1.46-1.89.84 0 2.26.41 5.58 3.56 3.8 3.73 4.42 5.4 6.56 5.4h5.6c1.6 0 2.4-.78 1.94-2.33-.5-1.55-2.32-3.8-4.72-6.45-1.3-1.52-3.26-3.15-3.86-3.97-.83-1.04-.6-1.51 0-2.44 0 0 6.83-9.44 7.54-12.65z"/></symbol><symbol id="icon-youtube" viewBox="0 0 41 32"><path fill="var(--color4, #83b3d3)" d="M35.02 0H5.97C2.47 0 0 3 0 6.4v19C0 29 2.47 32 5.97 32h29.47c3.09 0 5.97-3 5.97-6.4V6.4C41 3 38.53 0 35.03 0zm-20.6 23.6V8.4l13.8 7.6-13.8 7.6z"/></symbol><symbol id="union" viewBox="0 0 32 32"><path fill="var(--color1, #fff)" d="M.4 15.14 15.15 1.6l14.77 13.54V30.4H.4V15.14zm2.46.98v11.82h24.61V16.12L15.17 5.05 2.84 16.12zm9.84 9.36v-6.16h4.93v6.16h2.46v-8.62h-9.85v8.62h2.46z"/></symbol></defs></svg>